<?xml version="1.0" encoding="UTF-8" standalone="no"?>
<!-- Created with Inkscape (http://www.inkscape.org/) -->

<svg
   width="113.43682mm"
   height="113.43682mm"
   viewBox="0 0 113.43682 113.43682"
   version="1.1"
   id="svg5"
   xml:space="preserve"
   sodipodi:docname="firecord.svg"
   inkscape:version="1.2.2 (b0a8486541, 2022-12-01)"
   xmlns:inkscape="http://www.inkscape.org/namespaces/inkscape"
   xmlns:sodipodi="http://sodipodi.sourceforge.net/DTD/sodipodi-0.dtd"
   xmlns:xlink="http://www.w3.org/1999/xlink"
   xmlns="http://www.w3.org/2000/svg"
   xmlns:svg="http://www.w3.org/2000/svg"><sodipodi:namedview
     id="namedview7"
     pagecolor="#505050"
     bordercolor="#eeeeee"
     borderopacity="1"
     inkscape:showpageshadow="0"
     inkscape:pageopacity="0"
     inkscape:pagecheckerboard="0"
     inkscape:deskcolor="#505050"
     inkscape:document-units="mm"
     showgrid="false"
     showguides="false"
     inkscape:zoom="1.4142136"
     inkscape:cx="159.45258"
     inkscape:cy="242.53763"
     inkscape:window-width="1916"
     inkscape:window-height="1045"
     inkscape:window-x="0"
     inkscape:window-y="0"
     inkscape:window-maximized="1"
     inkscape:current-layer="layer1"><sodipodi:guide
       position="66.447011,96.764063"
       orientation="1,0"
       id="guide566"
       inkscape:locked="false" /></sodipodi:namedview><defs
     id="defs2"><linearGradient
       inkscape:collect="always"
       id="linearGradient2054"><stop
         style="stop-color:#ee0081;stop-opacity:1;"
         offset="0"
         id="stop2050" /><stop
         style="stop-color:#ff1328;stop-opacity:1;"
         offset="0.34128881"
         id="stop7344" /><stop
         style="stop-color:#f96500;stop-opacity:1;"
         offset="0.66348451"
         id="stop7346" /><stop
         style="stop-color:#ffee02;stop-opacity:1;"
         offset="1"
         id="stop2052" /></linearGradient><linearGradient
       inkscape:collect="always"
       xlink:href="#linearGradient2054"
       id="linearGradient2056"
       x1="46.914089"
       y1="119.9143"
       x2="141.00635"
       y2="119.9143"
       gradientUnits="userSpaceOnUse"
       gradientTransform="translate(0.23893294,5.341569)" /></defs><g
     inkscape:label="Capa 1"
     inkscape:groupmode="layer"
     id="layer1"
     transform="translate(-37.48074,-68.537451)"><rect
       style="fill:none;fill-opacity:1;stroke:none;stroke-width:0.291151;stroke-opacity:1"
       id="rect13176"
       width="113.43683"
       height="113.43683"
       x="37.48074"
       y="68.537453"
       inkscape:export-filename="Public/make/firecord/usr/share/pixmaps/firecord.png"
       inkscape:export-xdpi="10.75"
       inkscape:export-ydpi="10.75" /><path
       id="path233"
       style="fill:url(#linearGradient2056);fill-opacity:1;stroke-width:0.256187"
       d="m 82.580021,89.077027 c -1.512258,0.02495 -3.948067,1.125266 -8.228236,3.160014 -0.331759,0.157699 -0.657475,0.320015 -0.980344,0.484725 -0.04667,0.02358 -0.09252,0.0481 -0.139013,0.07183 -0.122069,0.06289 -0.244732,0.125313 -0.365444,0.189136 -7.022264,3.681258 -11.952402,9.064748 -14.207951,11.858188 -1.626326,1.83185 -2.995858,3.78455 -4.086826,5.82704 -2.374101,3.986 -4.374482,8.7489 -5.774179,14.06839 -4.799404,18.23982 1.484443,30.26293 11.327897,33.97157 13.609582,5.12757 17.73333,2.71319 20.28958,-4.64726 -2.148002,-0.94455 -4.04146,-2.12353 -5.641989,-3.37447 -2.713733,-2.121 -4.147379,-4.05247 -4.147379,-4.05247 0,0 1.698911,1.58325 4.523056,3.24425 2.890251,1.69987 6.316664,3.08024 10.40043,3.93412 6.433904,1.0886 10.461666,1.22099 17.299047,5.1e-4 4.08377,-0.85388 7.51017,-2.23425 10.40044,-3.93412 2.82413,-1.661 4.52306,-3.24425 4.52306,-3.24425 0,0 -1.43366,1.93147 -4.14739,4.05247 -1.60052,1.25094 -3.49399,2.42992 -5.64199,3.37447 2.55624,7.36045 6.68,9.77483 20.28958,4.64726 9.84345,-3.70864 16.12732,-15.73175 11.32789,-33.97157 -1.39968,-5.31949 -3.40006,-10.08239 -5.77417,-14.06839 -1.09097,-2.04249 -2.46051,-3.99519 -4.08682,-5.82704 -2.25555,-2.79344 -7.1857,-8.176936 -14.20796,-11.858188 -0.12071,-0.06383 -0.24338,-0.126236 -0.36544,-0.189136 -0.0464,-0.0237 -0.0923,-0.04823 -0.13901,-0.07183 -0.32287,-0.16471 -0.6486,-0.327035 -0.98035,-0.484725 -4.28017,-2.034753 -6.71598,-3.135064 -8.22824,-3.160014 -1.22864,-0.02026 -1.8468,0.674595 -2.35001,2.149223 4.03963,0.946208 7.45962,2.806356 10.08872,4.861202 2.71373,2.120996 4.14738,4.052978 4.14738,4.052978 0,0 -1.69891,-1.583244 -4.52306,-3.244242 -3.0097,-1.770126 -6.60018,-3.194548 -10.90958,-4.037996 -7.549613,-0.999516 -9.107869,-0.944018 -16.145181,0 -4.309398,0.843451 -7.899876,2.26787 -10.909577,4.037996 -2.824146,1.660996 -4.523056,3.244242 -4.523056,3.244242 0,0 1.43365,-1.931983 4.147378,-4.052978 C 77.47041,94.03261 80.8904,92.172454 84.930032,91.22625 84.42682,89.751618 83.808658,89.056762 82.580021,89.077027 Z m -0.484414,28.543993 c 3.555171,-0.012 6.444842,4.05539 6.456027,9.0873 v 0.0289 c -1.11e-4,5.03169 -2.88055,9.11172 -6.435559,9.11572 -3.555018,0.004 -6.440039,-4.06955 -6.445794,-9.10125 -0.0058,-5.0319 2.870177,-9.11872 6.425326,-9.13071 z m 24.207113,0 c 3.55516,0.012 6.43107,4.09882 6.42533,9.13071 -0.006,5.0317 -2.89078,9.10525 -6.4458,9.10125 -3.55501,-0.004 -6.435449,-4.08403 -6.435557,-9.11572 v -0.0289 c 0.01122,-5.03191 2.900857,-9.09932 6.456027,-9.0873 z"
       sodipodi:nodetypes="ssccccccscscsccscscssccccccscscsccscscsccsssccssscccs" /></g></svg>
